<svg xmlns="http://www.w3.org/2000/svg" viewBox="0 0 423.79 89.11"><defs><style>.cls-1{fill:#fff;}</style></defs><title>Asset 1</title><g id="Layer_2" data-name="Layer 2"><g id="Layer_1-2" data-name="Layer 1"><path class="cls-1" d="M36.73,56.56q-13.8,0-13.8-19.05,0-20.4,12.93-20.41a12.3,12.3,0,0,1,8.7,3,12.57,12.57,0,0,1,3.74,8.45H70.07Q68.61,14.1,58.89,6.8q-9-6.79-24-6.8Q19.14,0,9.43,10.59,0,20.79,0,36.73,0,53.94,9.91,63.8t27.21,9.86Q51,73.66,60,66T70.55,44.7H48.49Q46.95,56.57,36.73,56.56Z"/><rect class="cls-1" x="72.11" width="20.21" height="14.38"/><path class="cls-1" d="M160.93,20.89l-8.84,31.39-9-31.39H117.59V5.05H97.67V20.89H72.11V71.82H92.32V32.56h5.05V53.84q0,12.93,5,15.64,4.19,2.34,24.78,2.34V57.34H123.9q-3.89,0-5.1-1.22T117.59,51V32.56H127l12.51,34.69a12.17,12.17,0,0,1,.87,3.79q0,3.88-6.6,3.69h-4.18v14c6.47.26,9.46.38,8.94.38q12.72,0,17.49-4.47,3.5-3.3,8-16.22l16.33-47.53Z"/><path class="cls-1" d="M419.29,52.18q1.08-6.82-6-10.29Q411,40.72,400,38q-7.05-1.72-6.17-4.23,1.14-3.55,6.91-3.56c3.4,0,4.84,1.63,4.33,4.91h18.19a13,13,0,0,0,.37-1.74q2.22-14.14-20.11-14.14a39.76,39.76,0,0,0-17.3,3.56,27.34,27.34,0,0,0-4.37,2.58l3.06-4.7h-19L347.54,51.89l2.69-31.18H333.29L314.91,51.89l2.69-31.18H298.06l0,10.69a15.71,15.71,0,0,0-3.42-5.92q-5.76-6.21-17.22-6.21a39,39,0,0,0-22.93,7.5,41.88,41.88,0,0,0-9.09,8.61L256.56,1.85H234.81l-7.32,22.07-4.41,15.81L210.86,1.85H189.64L166.56,71.14h21.75l7.3-21.94L200,33.41l12.16,37.73h21.27l4.7-14.09a14.45,14.45,0,0,0,5.1,10.53q5.76,5,16.44,5a44.91,44.91,0,0,0,18.7-3.85,32.5,32.5,0,0,0,14.81-12.8H274.05a11.28,11.28,0,0,1-9,4.42,7.4,7.4,0,0,1-5.68-2.16A6.59,6.59,0,0,1,258,52.38a16.23,16.23,0,0,1,.49-1.93h38.21c.56-1.62,1-3.13,1.34-4.55L298,71.14h19.56l17-29.59-2,29.59H352l21.49-33c-.05.25-.12.51-.16.74q-1.07,6.84,5.83,10.11,1.88.85,13,3.56c4.44,1.09,6.36,2.6,5.73,4.52q-1.47,4.53-7.93,4.52-6,0-5.21-4.81c.09-.58.17-1,.22-1.35H366a18,18,0,0,0-.43,2.12q-2.37,15,20,15A48.55,48.55,0,0,0,404.9,69Q415.42,64.6,418.66,55A16.87,16.87,0,0,0,419.29,52.18ZM280.38,38.9a7.2,7.2,0,0,1-.31,1.35H261.88q2.82-8.76,12.26-8.76a6.07,6.07,0,0,1,4.9,2.17A6.24,6.24,0,0,1,280.38,38.9Z"/></g></g></svg>